<svg width="129" height="305" viewBox="0 0 129 305" fill="none" xmlns="http://www.w3.org/2000/svg">
<path d="M-239.968 170.541C-240.874 204.334 -222.675 251.123 -185.212 242.675C-156.895 236.29 -182.661 204.154 -147.84 185.981C-113.019 167.807 -67.5901 173.269 -45.8614 203.192C-29.8608 225.226 -58.2195 246.254 -45.8614 270.01C-17.4556 324.615 123.444 312.594 128.834 252.799C132.407 213.164 77.2306 207.401 60.1728 170.541C39.4472 125.757 81.936 85.6182 48.2946 47.2812C22.8534 18.2889 -6.20078 -8.84112 -45.8614 2.73538C-97.3694 17.77 3.38971 104.234 -45.8614 124.224C-68.7427 133.511 -85.5119 127.469 -110.467 124.224C-140.972 120.257 -155.289 95.4283 -185.212 101.951C-221.481 109.857 -239.092 137.893 -239.968 170.541Z" fill="url(#paint0_linear_117_818)" fill-opacity="0.6"/>
<defs>
<linearGradient id="paint0_linear_117_818" x1="-56" y1="145" x2="92.8704" y2="333.529" gradientUnits="userSpaceOnUse">
<stop stop-color="#8075FE"/>
<stop offset="1" stop-color="#0C117C"/>
</linearGradient>
</defs>
</svg>
