<svg width="40" height="40" viewBox="0 0 40 40" fill="none" xmlns="http://www.w3.org/2000/svg">
<rect width="40" height="40" rx="20" fill="#F7F7F9"/>
<rect width="40" height="40" rx="20" fill="#F7F7F9"/>
<path fill-rule="evenodd" clip-rule="evenodd" d="M24.0368 9.00018C24.7675 9.00018 25.4969 9.10324 26.1905 9.33597C30.4643 10.7254 32.0043 15.4149 30.7179 19.5139C29.9884 21.6085 28.7958 23.5202 27.2338 25.0822C24.9979 27.2474 22.5443 29.1695 19.9032 30.8253L19.6137 31.0002L19.3126 30.8137C16.6622 29.1695 14.1947 27.2474 11.938 25.0706C10.3864 23.5086 9.19265 21.6085 8.4516 19.5139C7.14318 15.4149 8.68318 10.7254 13.0033 9.31166C13.3391 9.19587 13.6853 9.11482 14.0326 9.06966H14.1716C14.497 9.02218 14.82 9.00018 15.1442 9.00018H15.2716C16.0011 9.02218 16.7074 9.14955 17.3917 9.38229H17.46C17.5063 9.40429 17.5411 9.42861 17.5642 9.45061C17.8201 9.53282 18.0621 9.62545 18.2937 9.75282L18.7337 9.94966C18.84 10.0064 18.9593 10.093 19.0625 10.1679C19.1278 10.2153 19.1867 10.2581 19.2316 10.2854C19.2505 10.2966 19.2697 10.3078 19.2891 10.3191C19.3883 10.3771 19.4917 10.4374 19.579 10.5043C20.8654 9.52124 22.4274 8.98861 24.0368 9.00018ZM27.1166 17.337C27.5913 17.3243 27.9966 16.9433 28.0313 16.4559V16.3181C28.066 14.6959 27.083 13.2265 25.5882 12.6591C25.1134 12.4959 24.5924 12.7518 24.4187 13.2381C24.2566 13.7244 24.5113 14.257 24.9976 14.4295C25.7398 14.7074 26.2366 15.4381 26.2366 16.2474V16.2833C26.2146 16.5485 26.2945 16.8044 26.4566 17.0012C26.6187 17.1981 26.8618 17.3127 27.1166 17.337Z" fill="url(#paint0_linear_1_381)"/>
<defs>
<linearGradient id="paint0_linear_1_381" x1="19.5791" y1="9" x2="8.75116" y2="9.12109" gradientUnits="userSpaceOnUse">
<stop stop-color="#F7759C"/>
<stop offset="1" stop-color="#FF6BA1"/>
</linearGradient>
</defs>
</svg>
