<svg width="24" height="24" viewBox="0 0 24 24" fill="none" xmlns="http://www.w3.org/2000/svg">
<path d="M13.1165 13.3544V13.353C13.1195 12.2354 13.1192 11.1184 13.119 10.0003C13.1189 9.68065 13.1188 9.36091 13.1188 9.04104C13.1188 8.74424 13.1189 8.44758 13.119 8.15102C13.1192 7.11394 13.1195 6.07805 13.1165 5.0415C13.1157 4.82783 13.1102 4.65328 13.0792 4.49772C12.8918 3.55996 12.3697 2.94509 11.4835 2.64405L13.1165 13.3544ZM13.1165 13.3544C13.1165 13.4639 13.1306 13.5921 13.1877 13.7245M13.1165 13.3544L13.1877 13.7245M12.949 8.79205V9.29205C12.949 9.67817 12.9492 10.0646 12.9495 10.4512C12.9503 11.5346 12.951 12.6194 12.9458 13.7033C12.9457 13.7975 12.9614 13.8478 12.9767 13.8783C12.9915 13.9081 13.0211 13.9498 13.0958 14.0038C14.4181 14.9579 15.0409 16.6332 14.6614 18.1934C14.2714 19.8001 12.9904 21.0125 11.3802 21.2758C9.12003 21.6463 6.97957 20.0654 6.70932 17.7861L6.70928 17.7858C6.52687 16.2397 7.09395 14.9605 8.31817 14.0239L8.31845 14.0237C8.40126 13.9604 8.43587 13.9131 8.45334 13.8788C8.47012 13.8459 8.48663 13.7946 8.4864 13.6989V13.6989C8.48251 12.11 8.48244 10.5184 8.48236 8.92744C8.4823 7.6355 8.48224 6.34394 8.48014 5.05456L8.48014 5.05436C8.47921 4.29441 8.73141 3.58309 9.4323 3.09455C10.1253 2.61066 10.9164 2.5318 11.6891 2.90902C12.439 3.27472 12.9266 3.93127 12.938 4.81728C12.938 4.81735 12.938 4.81741 12.938 4.81748L12.949 8.79205ZM12.949 8.79205H12.9447H12.949ZM13.1877 13.7245C13.2455 13.8581 13.3314 13.96 13.4221 14.0412M13.1877 13.7245L13.4221 14.0412M13.4221 14.0412L13.7557 13.6688L13.4221 14.0412ZM7.99784 14.058C8.08783 13.9784 8.17665 13.8769 8.23784 13.7421C8.29939 13.6065 8.31722 13.4719 8.31655 13.3493L7.81656 13.3521C7.8147 12.0324 7.81461 10.7127 7.81452 9.39306C7.81442 7.94141 7.81433 6.48976 7.81187 5.03811C7.8103 4.15291 8.08869 3.38658 8.74946 2.78993L7.99784 14.058Z" fill="#130F26" stroke="#130F26"/>
<path d="M16.2908 5.49935C16.0046 5.49935 15.7183 5.50326 15.4329 5.49857C15.0505 5.49153 14.7878 5.24599 14.7941 4.90896C14.8003 4.57584 15.056 4.33577 15.4275 4.33186C15.9999 4.32639 16.5715 4.32639 17.1439 4.33186C17.5216 4.33499 17.7875 4.58757 17.7828 4.92304C17.7781 5.25538 17.5231 5.49075 17.1501 5.49857C16.8624 5.50404 16.577 5.49935 16.2908 5.49935Z" fill="#130F26"/>
<path d="M16.2812 10.1843C15.995 10.1843 15.7088 10.1882 15.4226 10.1835C15.0511 10.1765 14.7954 9.93796 14.7923 9.60484C14.79 9.27484 15.0457 9.02305 15.4155 9.01758C15.9942 9.00897 16.5729 9.00976 17.1515 9.01758C17.5222 9.02227 17.7779 9.26859 17.781 9.59858C17.7841 9.93639 17.5214 10.178 17.139 10.1835C16.8528 10.1882 16.5666 10.1843 16.2812 10.1843Z" fill="#130F26"/>
<path d="M16.2804 12.5271C15.9942 12.5271 15.708 12.531 15.4218 12.5263C15.0519 12.5201 14.7947 12.2808 14.7923 11.9477C14.79 11.6247 15.0386 11.369 15.396 11.362C15.9872 11.351 16.5791 11.351 17.1711 11.362C17.5378 11.369 17.792 11.6333 17.7802 11.961C17.7685 12.2878 17.5175 12.5169 17.1578 12.5263C17.0084 12.5302 16.8591 12.5271 16.7089 12.5271C16.5666 12.5271 16.4235 12.5271 16.2804 12.5271Z" fill="#130F26"/>
<path d="M16.293 7.84228C16.0068 7.84228 15.7206 7.84619 15.4352 7.8415C15.0513 7.83525 14.7901 7.59284 14.794 7.25502C14.7979 6.92268 15.0528 6.67949 15.425 6.67558C16.0037 6.66854 16.5824 6.66776 17.161 6.67636C17.5278 6.68105 17.7858 6.93598 17.7827 7.26441C17.7796 7.59674 17.5239 7.83447 17.1524 7.8415C16.8647 7.84619 16.5785 7.84228 16.293 7.84228Z" fill="#130F26"/>
<path d="M11.3057 14.966C11.8015 15.1099 12.223 15.3585 12.5412 15.7566C13.1089 16.4666 13.263 17.2634 12.9361 18.115C12.6139 18.9548 11.9915 19.4772 11.0969 19.6164C9.58692 19.8518 8.29119 18.6866 8.3428 17.1649C8.37486 16.2156 9.03172 15.3359 9.95523 15.0293C10.1022 14.9808 10.139 14.9191 10.1382 14.7736C10.1335 12.283 10.1343 9.79166 10.1359 7.30107C10.1359 6.85456 10.5003 6.56758 10.8967 6.69582C11.1219 6.76855 11.283 6.9742 11.3034 7.21662C11.3088 7.28152 11.3057 7.34643 11.3057 7.41133C11.3057 9.85031 11.3057 12.2893 11.3057 14.7283C11.3057 14.8049 11.3057 14.8823 11.3057 14.966Z" fill="#130F26"/>
</svg>
